<mxfile host="app.diagrams.net" modified="2024-03-27T06:41:11.424Z" agent="Mozilla/5.0 (Windows NT 10.0; Win64; x64) AppleWebKit/537.36 (KHTML, like Gecko) Chrome/122.0.0.0 Safari/537.36 Edg/122.0.0.0" version="24.1.0" etag="5ONy3AfZ0_z477g12Aay" type="github">
  <diagram name="Page-1" id="oHH52dC1xWGVuszcSQPt">
    <mxGraphModel>
      <root>
        <mxCell id="0" />
        <mxCell id="1" parent="0" />
      </root>
    </mxGraphModel>
  </diagram>
</mxfile>
